<svg width="20" height="19" viewBox="0 0 20 19" fill="none" xmlns="http://www.w3.org/2000/svg">
<path d="M2.5 8C2.06667 8 1.70833 7.85833 1.425 7.575C1.14167 7.29167 1 6.93333 1 6.5C1 6.06667 1.14167 5.70833 1.425 5.425C1.70833 5.14167 2.06667 5 2.5 5C2.93333 5 3.29167 5.14167 3.575 5.425C3.85833 5.70833 4 6.06667 4 6.5C4 6.93333 3.85833 7.29167 3.575 7.575C3.29167 7.85833 2.93333 8 2.5 8ZM1 19V14H0V10C0 9.71667 0.0958333 9.47917 0.2875 9.2875C0.479167 9.09583 0.716667 9 1 9H4C4.28333 9 4.52083 9.09583 4.7125 9.2875C4.90417 9.47917 5 9.71667 5 10V14H4V17H12V12H10.25C9.06667 12 8.0625 11.5875 7.2375 10.7625C6.4125 9.9375 6 8.93333 6 7.75C6 6.86667 6.2375 6.07917 6.7125 5.3875C7.1875 4.69583 7.8 4.18333 8.55 3.85C8.73333 2.76667 9.2375 1.85417 10.0625 1.1125C10.8875 0.370833 11.8667 0 13 0C14.1333 0 15.1125 0.370833 15.9375 1.1125C16.7625 1.85417 17.2667 2.76667 17.45 3.85C18.2 4.18333 18.8125 4.69583 19.2875 5.3875C19.7625 6.07917 20 6.86667 20 7.75C20 8.93333 19.5875 9.9375 18.7625 10.7625C17.9375 11.5875 16.9333 12 15.75 12H14V17H19V19H1ZM10.25 10H15.75C16.3833 10 16.9167 9.78333 17.35 9.35C17.7833 8.91667 18 8.38333 18 7.75C18 7.3 17.8792 6.89167 17.6375 6.525C17.3958 6.15833 17.0667 5.88333 16.65 5.7L15.6 5.25L15.45 4.15C15.35 3.53333 15.0708 3.02083 14.6125 2.6125C14.1542 2.20417 13.6167 2 13 2C12.3833 2 11.8458 2.20417 11.3875 2.6125C10.9292 3.02083 10.65 3.53333 10.55 4.15L10.4 5.25L9.35 5.7C8.93333 5.88333 8.60417 6.15833 8.3625 6.525C8.12083 6.89167 8 7.3 8 7.75C8 8.38333 8.21667 8.91667 8.65 9.35C9.08333 9.78333 9.61667 10 10.25 10Z" fill="#D0000B"/>
</svg>

