<svg width="18" height="18" viewBox="0 0 18 18" fill="none" xmlns="http://www.w3.org/2000/svg">
<path d="M11.5 8.75C11.15 8.75 10.8542 8.62917 10.6125 8.3875C10.3708 8.14583 10.25 7.85 10.25 7.5C10.25 7.15 10.3708 6.85417 10.6125 6.6125C10.8542 6.37083 11.15 6.25 11.5 6.25C11.85 6.25 12.1458 6.37083 12.3875 6.6125C12.6292 6.85417 12.75 7.15 12.75 7.5C12.75 7.85 12.6292 8.14583 12.3875 8.3875C12.1458 8.62917 11.85 8.75 11.5 8.75V8.75M6.5 8.75C6.15 8.75 5.85417 8.62917 5.6125 8.3875C5.37083 8.14583 5.25 7.85 5.25 7.5C5.25 7.15 5.37083 6.85417 5.6125 6.6125C5.85417 6.37083 6.15 6.25 6.5 6.25C6.85 6.25 7.14583 6.37083 7.3875 6.6125C7.62917 6.85417 7.75 7.15 7.75 7.5C7.75 7.85 7.62917 8.14583 7.3875 8.3875C7.14583 8.62917 6.85 8.75 6.5 8.75V8.75M9 14C8 14 7.09583 13.725 6.2875 13.175C5.47917 12.625 4.88333 11.9 4.5 11H13.5C13.1167 11.9 12.5208 12.625 11.7125 13.175C10.9042 13.725 10 14 9 14V14M9 18C7.75 18 6.57917 17.7625 5.4875 17.2875C4.39583 16.8125 3.44583 16.1708 2.6375 15.3625C1.82917 14.5542 1.1875 13.6042 0.7125 12.5125C0.2375 11.4208 0 10.25 0 9C0 7.75 0.2375 6.57917 0.7125 5.4875C1.1875 4.39583 1.82917 3.44583 2.6375 2.6375C3.44583 1.82917 4.39583 1.1875 5.4875 0.7125C6.57917 0.2375 7.75 0 9 0C10.25 0 11.4208 0.2375 12.5125 0.7125C13.6042 1.1875 14.5542 1.82917 15.3625 2.6375C16.1708 3.44583 16.8125 4.39583 17.2875 5.4875C17.7625 6.57917 18 7.75 18 9C18 10.25 17.7625 11.4208 17.2875 12.5125C16.8125 13.6042 16.1708 14.5542 15.3625 15.3625C14.5542 16.1708 13.6042 16.8125 12.5125 17.2875C11.4208 17.7625 10.25 18 9 18V18M9 16C10.9333 16 12.5833 15.3167 13.95 13.95C15.3167 12.5833 16 10.9333 16 9C16 7.06667 15.3167 5.41667 13.95 4.05C12.5833 2.68333 10.9333 2 9 2C8.9 2 8.8 2 8.7 2C8.6 2 8.5 2.01667 8.4 2.05C8.3 2.15 8.23333 2.25833 8.2 2.375C8.16667 2.49167 8.15 2.61667 8.15 2.75C8.15 3.1 8.27083 3.39583 8.5125 3.6375C8.75417 3.87917 9.05 4 9.4 4C9.55 4 9.6875 3.975 9.8125 3.925C9.9375 3.875 10.0667 3.85 10.2 3.85C10.4 3.85 10.5667 3.925 10.7 4.075C10.8333 4.225 10.9 4.4 10.9 4.6C10.9 4.98333 10.7208 5.22917 10.3625 5.3375C10.0042 5.44583 9.68333 5.5 9.4 5.5C8.65 5.5 8.00417 5.22917 7.4625 4.6875C6.92083 4.14583 6.65 3.5 6.65 2.75C6.65 2.7 6.65 2.65 6.65 2.6C6.65 2.55 6.65833 2.48333 6.675 2.4C5.29167 2.9 4.16667 3.74167 3.3 4.925C2.43333 6.10833 2 7.46667 2 9C2 10.9333 2.68333 12.5833 4.05 13.95C5.41667 15.3167 7.06667 16 9 16V16M9 9V9V9V9V9V9V9V9V9V9" fill="white"/>
</svg>
