<svg width="500" height="221" viewBox="0 0 500 221" fill="none" xmlns="http://www.w3.org/2000/svg">
<path d="M222.824 61.5369C227.064 59.4731 231.527 59.7878 236.156 59.8484C237.217 59.846 238.279 59.844 239.372 59.8415C241.608 59.8425 243.844 59.8556 246.079 59.8806C249.49 59.9149 252.898 59.901 256.309 59.8816C258.487 59.8885 260.665 59.8982 262.844 59.9109C263.857 59.9059 264.872 59.9013 265.916 59.8962C272.143 59.9992 275.911 60.8206 281 64.4773C289.596 74.3036 291.589 89.3005 294.062 101.665C294.447 103.556 294.447 103.556 294.839 105.485C296.276 112.633 297.657 119.789 298.875 126.977C298.995 127.681 299.115 128.386 299.238 129.111C299.801 132.6 300.122 135.943 300 139.477C306.723 135.996 312.873 131.913 319.062 127.576C321.033 126.197 323.013 124.832 325 123.477C325.67 123.02 326.341 122.562 327.031 122.091C337.705 115.079 349.956 115.299 362.297 116.907C371.059 118.958 377.906 124.265 385.109 129.415C385.824 129.92 386.54 130.425 387.276 130.946C388.699 131.954 390.114 132.975 391.519 134.009C392.171 134.473 392.824 134.937 393.496 135.415C394.075 135.836 394.655 136.258 395.252 136.692C396.962 137.625 396.962 137.625 398.841 137.354C401.876 136.122 404.356 134.374 407.051 132.512C408.236 131.704 409.422 130.896 410.607 130.089C412.459 128.817 414.309 127.543 416.156 126.264C417.949 125.027 419.749 123.8 421.551 122.575C422.62 121.838 423.689 121.101 424.79 120.342C429.466 117.626 434.111 116.229 439.523 116.212L441.93 116.204L444.375 116.227L446.797 116.204C461.668 116.252 471.252 122.777 483.188 131.04C485.097 132.354 487.008 133.668 488.918 134.981C489.751 135.557 490.584 136.133 491.442 136.726C494.278 138.668 497.14 140.571 500 142.477V143.477C496.494 147.223 496.494 147.224 494.035 148.837C491.983 149.683 491.983 149.682 489.806 148.894C489.003 148.502 488.224 148.12 487.445 147.739L484.832 146.503C483.038 145.616 481.241 144.736 479.441 143.862L476.82 142.614C472.934 140.701 470.551 140.236 466 139.477V220.477H426V139.477C422 139.477 422 139.478 419.806 140.288C419.003 140.67 418.224 141.04 417.445 141.411L414.832 142.628C409.604 145.113 404.433 147.63 398.961 149.536C393.768 148.796 393.768 148.796 389.012 146.415C387.34 145.541 385.666 144.674 383.988 143.813L381.531 142.579C377.735 140.602 375.553 140.236 371 139.477V220.477H331V139.477C327 139.477 327 139.478 324.828 140.38C311.69 147.331 300.924 151.063 286 150.477C286.169 146.765 285.696 143.344 284.984 139.703C284.833 138.957 284.686 138.233 284.539 137.509C284.23 135.953 283.92 134.396 283.609 132.841C283.116 130.406 282.624 127.971 282.142 125.534C281.826 123.937 281.508 122.339 281.188 120.743C281.031 119.962 280.879 119.204 280.727 118.446C279.84 113.951 278.874 109.684 277 105.477H270V220.477H230V105.477H223C221.885 106.592 221.885 106.593 220.845 111.696C220.696 112.45 220.551 113.183 220.406 113.915C220.095 115.465 219.783 117.016 219.473 118.567C218.989 121.012 218.505 123.457 218.012 125.9C217.69 127.49 217.37 129.08 217.053 130.67C216.897 131.454 216.745 132.216 216.594 132.977C215.683 137.478 214.909 141.943 214.4 146.509L214 150.477C200.746 150.852 191.121 148.499 179.293 142.509C175.702 140.594 175.702 140.594 169 139.477V220.477H129V139.477C125 139.477 125 139.478 122.789 140.288C121.588 140.855 121.588 140.855 120.41 141.411L117.783 142.628C115.974 143.483 114.164 144.338 112.354 145.19L109.723 146.411C105.716 148.306 102.111 150.115 97.6914 148.781C96.8945 148.394 96.1211 148.017 95.3477 147.641L92.7441 146.415C90.9627 145.543 89.1787 144.676 87.3926 143.813L84.7852 142.579C80.9177 140.691 78.5226 140.231 74 139.477V220.477H34V139.477C30.0001 139.477 30.0001 139.478 27.5742 140.412C26.2251 141.063 26.2246 141.062 24.9023 141.7C22.9107 142.639 20.9224 143.586 18.9375 144.54L15.8887 146.01L12.9648 147.387C9.48573 149.063 8.75017 149.727 5 148.477L0 143.477V142.477C20.5167 122.91 20.517 122.91 36 118.477C37.2299 118.098 38.4604 117.719 39.7275 117.328C44.3136 116.137 48.6003 116.148 53.3125 116.165L55.998 116.116C69.8602 116.106 78.7879 122.295 89.6367 130.103C91.3996 131.365 93.1772 132.603 94.957 133.841C95.9983 134.586 97.0394 135.332 98.1123 136.1C100.887 137.792 100.887 137.791 103.633 136.87C105.804 135.593 107.886 134.311 109.926 132.833L112.092 131.28L114.312 129.665C125.862 121.315 134.154 116.122 148.812 116.102L151.643 116.028C164.636 115.974 173.701 122.609 184 129.727C185.836 130.988 187.673 132.246 189.515 133.499C191.165 134.623 192.809 135.755 194.453 136.888C196.783 138.654 196.783 138.654 199 138.477C199.186 137.507 199.372 136.537 199.563 135.538C201.231 126.847 202.917 118.159 204.627 109.476C205.546 104.807 206.445 100.134 207.332 95.4578C212.578 68.6176 212.578 68.6174 222.824 61.5369Z" fill="#D0000B"/>
<path d="M261.375 2.54011C267.604 6.07503 271.758 10.6424 274 17.4776C275.074 25.3598 274.458 31.6826 269.922 38.3135C265.505 43.287 259.911 47.0443 253.215 47.7862C244.848 48.1153 239.519 46.8169 233 41.4776C228.764 37.4909 226.305 33.2441 225.664 27.4268C225.569 19.4593 226.062 13.7471 231.578 7.76667C240.013 -0.0222297 250.762 -2.31035 261.375 2.54011Z" fill="#D0000B"/>
<path d="M159 76.1651C163.517 79.6467 167.34 83.7841 168.371 89.5557C168.561 95.7773 166.969 99.6976 163 104.478C157.466 109.617 152.653 109.945 145.309 109.888C140.253 109.261 137.362 107.201 134 103.478C130.483 98.8613 130.429 94.0206 130.59 88.3878C131.432 82.4108 134.495 79.6758 139.063 76.0401C145.014 73.032 153.105 73.0524 159 76.1651Z" fill="#D0000B"/>
<path d="M358.395 75.0909C362.943 77.0651 365.773 79.8658 368.152 84.2042C370.236 89.7925 369.791 95.3353 367.5 100.79C364.93 105.175 361.823 107.829 357 109.478C351.046 110.299 345.919 110.386 340.438 107.79C335.752 103.345 331.767 98.9101 331.562 92.2276C331.684 86.9639 333.679 83.4669 337 79.4776C343.345 73.7232 350.058 72.9558 358.395 75.0909Z" fill="#D0000B"/>
<path d="M453 74.4776C458.224 76.8682 461.456 80.3517 464 85.4776C464.817 90.8804 464.931 96.56 462.312 101.478C459.295 105.392 456.715 107.906 452 109.478C445.666 110.162 439.751 110.687 434.375 106.853C430.375 103.207 428.29 100.142 427.691 94.6417C427.498 89.8956 427.581 86.3998 429.562 82.0401C430.367 81.1945 431.171 80.3489 432 79.4776C432.44 78.9942 432.879 78.5108 433.332 78.0128C438.826 72.9917 446.004 73.3331 453 74.4776Z" fill="#D0000B"/>
<path d="M62.4765 75.3995C66.8347 77.9132 69.9666 80.8177 72 85.4776C72.7367 90.9873 72.97 96.4554 70.3125 101.478C67.295 105.392 64.7153 107.906 60 109.478C53.6659 110.162 47.7513 110.687 42.375 106.853C38.3752 103.207 36.2899 100.142 35.6914 94.6417C35.498 89.8956 35.5808 86.3998 37.5625 82.0401C38.3669 81.1945 39.1712 80.3489 40 79.4776C40.4512 78.9942 40.9023 78.5108 41.3672 78.0128C47.0963 72.8679 55.4742 72.7929 62.4765 75.3995Z" fill="#D0000B"/>
</svg>
